# xmcd
# Track frame offsets:
# 150
# 20964
# 37672
# 51663
# 69588
# 88545
# 104590
# 119560
# 132559
# 145153
# 160300
# 182250
# 204027
# 213378
# 225501
# 246144
# 258887
# 270504
# 285326
# 302357
#
# Disc length: 4223 seconds
# Revision: 0
# Processed by: cddbd v1.5.2PL0 Copyright (c) Steve Scherf et al.
# Submitted via: VisiTrax 2.11.1.266 - For more info visit www.synapsa.com
#
DISCID=17107d14
DTITLE=Various Artists-See List - Country Box cd3
DYEAR=2010
DGENRE=Country
TTITLE0=Leann Rimes - Commitment
TTITLE1=Gretchen Wilson - Redneck Woman
TTITLE2=Shea Fisher - Suitcase
TTITLE3=Pam Tillis - Maybe it was Memphis
TTITLE4=Clint Black - Like the Rain
TTITLE5=Lonestar - Smile
TTITLE6=Alabama - Love in the First Degree
TTITLE7=Sawyer Brown - Six Days on the Road
TTITLE8=Waylon Jennings - I"m a Ramblin Man
TTITLE9=Mary Chapin Carpenter - Passionate Kisses
TTITLE10=Jamey Johnson - In Colour
TTITLE11=Merle Haggard - Going Where the Lonely Go
TTITLE12=Burl Ives - A Little Bitty Tear
TTITLE13=Brenda Lee - I"m Sorry
TTITLE14=Highwaymen - Desperados Waiting for a Train
TTITLE15=Charley Pride - I"d Rather Love You
TTITLE16=Jim Reeves - Welcome to My World
TTITLE17=George Jones - He Stopped Loving Her Today
TTITLE18=Ricky Skaggs - Cajun Moon
TTITLE19=Lee Greenwood - God Bless the USA
EXTD=
EXTT0=
EXTT1=
EXTT2=
EXTT3=
EXTT4=
EXTT5=
EXTT6=
EXTT7=
EXTT8=
EXTT9=
EXTT10=
EXTT11=
EXTT12=
EXTT13=
EXTT14=
EXTT15=
EXTT16=
EXTT17=
EXTT18=
EXTT19=
PLAYORDER=
